<?xml version="1.0" standalone="no"?>
<!DOCTYPE svg PUBLIC "-//W3C//DTD SVG 20010904//EN"
 "http://www.w3.org/TR/2001/REC-SVG-20010904/DTD/svg10.dtd">
<svg version="1.0" xmlns="http://www.w3.org/2000/svg"
 width="700.000000pt" height="700.000000pt" viewBox="0 0 700.000000 700.000000"
 preserveAspectRatio="xMidYMid meet">
<metadata>
Created by potrace 1.11, written by Peter Selinger 2001-2013
</metadata>
<g transform="translate(0.000000,700.000000) scale(0.100000,-0.100000)"
fill="#000000" stroke="none">
<path d="M6070 6985 c-30 -6 -109 -29 -175 -50 -66 -20 -140 -43 -165 -50
-102 -30 -261 -78 -350 -107 -52 -17 -115 -36 -140 -43 -25 -7 -164 -50 -310
-95 -146 -45 -301 -92 -345 -105 -44 -13 -168 -50 -275 -83 -406 -126 -1085
-334 -1095 -336 -15 -3 -181 -55 -250 -78 -262 -87 -487 -309 -590 -583 -13
-33 -26 -78 -29 -100 -4 -22 -9 -49 -13 -60 -4 -11 -7 -756 -7 -1655 -1 -899
-4 -1634 -9 -1633 -4 2 -24 10 -44 18 -74 31 -159 52 -253 61 -257 26 -535
-13 -786 -112 -304 -119 -554 -311 -720 -549 -91 -131 -151 -271 -180 -415
-18 -94 -15 -260 7 -350 55 -221 219 -417 443 -528 197 -97 375 -133 631 -126
167 4 186 6 324 35 598 127 1056 571 1116 1084 4 33 7 694 7 1468 0 1547 -4
1450 59 1543 67 98 171 163 350 220 187 58 409 128 669 209 135 42 256 80 270
85 14 5 84 27 155 49 72 22 218 68 325 101 364 115 545 171 620 194 41 13 143
45 225 71 342 108 363 114 436 111 51 -1 76 -7 96 -22 40 -30 62 -64 69 -109
8 -46 10 -2232 2 -2240 -2 -3 -23 4 -46 15 -22 11 -85 31 -139 45 -267 67
-599 52 -888 -41 -89 -28 -86 -27 -205 -82 -324 -149 -599 -425 -710 -713
-246 -639 222 -1199 1005 -1202 135 -1 177 2 294 18 19 3 70 14 115 24 510
123 918 457 1065 873 17 49 28 88 26 88 -2 0 0 11 5 25 5 14 12 60 16 103 8
106 8 4566 -1 4622 -17 118 -51 192 -124 272 -51 56 -144 113 -210 130 -58 15
-212 17 -271 3z"/>
</g>
</svg>
