<svg version="1.1" xmlns="http://www.w3.org/2000/svg" viewBox="0 0 466.33203 210">
	<g transform="translate(0 -128.17)">
		<path d="m454.16 128.17h-260.59c-8.242 0-16.293 6.679-17.988 14.92l-37.041 180.16c-1.691 8.24 3.619 14.92 11.854 14.92h260.59c8.242 0 16.293-6.679 17.986-14.92l37.035-180.16c1.697-8.241-3.61-14.92-11.852-14.92zm-31.174 60.293-115.65 55.773c-4.988 2.409-10.67 2.409-14.67 0l-92.713-55.773c-6.723-4.042-7.641-13.477-2.043-21.032 3.748-5.062 9.65-8.21 15.398-8.21 2.539 0 4.941 0.636 6.945 1.841l86.184 51.849 107.51-51.849c2.492-1.204 5.156-1.84 7.701-1.84 5.746 0 10.354 3.146 12.021 8.203 2.495 7.558-2.3 16.997-10.687 21.038z"/>
		<path d="m40.877 167.51h112.27c5.945 0 10.76-4.817 10.76-10.757 0-5.942-4.814-10.757-10.76-10.757h-112.27c-5.939 0-10.758 4.815-10.758 10.757 0 5.94 4.818 10.757 10.758 10.757z"/>
		<path d="m123.04 243.88h-112.28c-5.943 0-10.76 4.82-10.76 10.76 0 5.942 4.816 10.758 10.76 10.758h112.28c5.938 0 10.756-4.814 10.756-10.758 0-5.94-4.818-10.755-10.756-10.755z"/>
		<path d="m148.85 205.07c0-5.941-4.813-10.755-10.752-10.755h-67.104c-5.939 0-10.752 4.814-10.752 10.755 0 5.939 4.813 10.756 10.752 10.756h67.104c5.939 0 10.752-4.816 10.752-10.756z"/>
		<path d="m107.97 292.19h-35.852c-5.943 0-10.76 4.814-10.76 10.758 0 5.938 4.816 10.757 10.76 10.757h35.852c5.945 0 10.76-4.817 10.76-10.757-0.001-5.942-4.815-10.758-10.76-10.758z"/>
	</g>
</svg>
