<svg version="1.1" xmlns="http://www.w3.org/2000/svg" viewBox="0 0 516.375 516.375">
	<g>
		<rect x="133.875" y="191.25" width="248.625" height="19.125"/>
		<rect x="133.875" y="133.875" width="248.625" height="19.125"/>
		<path d="M439.875,160.65V95.625c0-21.038-17.213-38.25-38.25-38.25h-78.412L258.188,0l-65.025,57.375H114.75
			c-21.038,0-38.25,17.212-38.25,38.25v65.025l-57.375,49.725v267.75c0,21.037,17.212,38.25,38.25,38.25H459
			c21.037,0,38.25-17.213,38.25-38.25v-267.75L439.875,160.65z M439.875,185.513l28.688,24.862l-28.688,24.862V185.513z
			 M258.188,24.862l36.338,32.513h-74.588L258.188,24.862z M95.625,95.625c0-11.475,7.65-19.125,19.125-19.125h286.875
			c9.562,0,19.125,9.562,19.125,19.125v154.912L359.55,306H156.825l-61.2-53.55V95.625z M296.438,363.375L296.438,363.375h-65.025
			h32.512h-43.987l-42.075-38.25H336.6L296.438,363.375L296.438,363.375z M76.5,185.513v51.637l-28.688-26.775L76.5,185.513z
			 M43.987,491.513c-3.825-3.825-5.737-7.65-5.737-13.388V353.812V229.5l153,133.875L43.987,491.513z M66.938,497.25L200.812,382.5
			h114.75l133.875,114.75H66.938z M478.125,353.812v124.312c0,5.737-1.912,9.562-5.737,13.388L325.125,363.375l153-133.875V353.812z
			"/>
		<rect x="133.875" y="248.625" width="248.625" height="19.125"/>
	</g>
</svg>
