<svg xmlns="http://www.w3.org/2000/svg" viewBox="0 0 285.323 258.29099">
	<!-- http://www.flaticon.com/authors/freepik -->
	<g transform="translate(-5.839,-38.709)">
		<path d="m 228.037,101.786 c 0,12.885 10.484,23.369 23.369,23.369 12.885,0 23.369,-10.484 23.369,-23.369 0,-12.885 -10.484,-23.369 -23.369,-23.369 -12.885,0 -23.369,10.483 -23.369,23.369 z" />
		<path d="m 275.322,132.91 c -0.054,-0.018 -5.942,-1.825 -5.942,-1.825 -2.132,-0.651 -4.448,-0.25 -6.233,1.086 l -11.741,8.791 -11.741,-8.791 c -1.786,-1.337 -4.103,-1.738 -6.233,-1.086 0,0 -5.888,1.807 -5.942,1.825 -9.474,3.159 -15.839,11.99 -15.839,21.976 l 0,35.329 c 0,1.363 0.398,2.696 1.148,3.834 l 11.848,18.031 0,47.352 c 0,3.857 3.126,6.983 6.983,6.983 l 39.553,0 c 3.857,0 6.983,-3.126 6.983,-6.983 l 0,-47.352 11.848,-18.031 c 0.749,-1.139 1.148,-2.472 1.148,-3.834 l 0,-35.329 c 0,-9.986 -6.366,-18.817 -15.84,-21.976 z" />
		<path d="m 45.594,125.155 c 12.885,0 23.369,-10.484 23.369,-23.369 0,-12.885 -10.484,-23.369 -23.369,-23.369 -12.885,0 -23.37,10.483 -23.37,23.369 0,12.886 10.484,23.369 23.37,23.369 z" />
		<path d="m 69.51,132.91 c -0.054,-0.018 -5.942,-1.825 -5.942,-1.825 -2.133,-0.651 -4.447,-0.25 -6.233,1.086 l -11.741,8.791 -11.741,-8.791 c -1.785,-1.337 -4.103,-1.738 -6.233,-1.086 0,0 -5.888,1.807 -5.942,1.825 -9.474,3.159 -15.839,11.99 -15.839,21.976 l 0,35.329 c 0,1.363 0.398,2.696 1.148,3.834 l 11.848,18.031 0,47.352 c 0,3.857 3.126,6.983 6.983,6.983 l 39.552,0 c 3.857,0 6.983,-3.126 6.983,-6.983 l 0,-47.352 11.848,-18.031 c 0.749,-1.139 1.148,-2.472 1.148,-3.834 l 0,-35.329 c 0,-9.986 -6.366,-18.817 -15.839,-21.976 z" />
		<path d="m 178.642,68.851 c 0,-16.62 -13.522,-30.142 -30.142,-30.142 -16.62,0 -30.142,13.522 -30.142,30.142 0,16.621 13.522,30.142 30.142,30.142 16.62,0 30.142,-13.521 30.142,-30.142 z" />
		<path d="m 181.607,113.601 -0.05,-0.016 -8.603,-2.64 c -1.357,-0.417 -2.807,0.301 -3.295,1.64 l -18.09,49.635 c -1.044,2.863 -5.093,2.863 -6.137,0 l -18.09,-49.635 c -0.394,-1.081 -1.414,-1.759 -2.508,-1.759 -0.259,0 -9.38,2.755 -9.38,2.755 -10.99,3.662 -18.332,13.85 -18.332,25.37 l 0,52.506 c 0,0.521 0.153,1.031 0.439,1.467 l 18.876,28.724 0,72.68 c 0,1.476 1.196,2.672 2.672,2.672 l 58.783,0 c 1.476,0 2.672,-1.196 2.672,-2.672 l 0,-72.68 18.876,-28.724 c 0.286,-0.436 0.439,-0.946 0.439,-1.467 l 0,-52.644 c -0.001,-11.47 -7.372,-21.641 -18.272,-25.212 z" />
		<path d="m 155.568,112.556 c -0.747,-0.814 -1.84,-1.224 -2.946,-1.224 l -8.245,0 c -1.105,0 -2.198,0.41 -2.946,1.224 -1.157,1.261 -1.325,3.082 -0.504,4.505 l 4.407,6.644 -2.063,17.405 4.063,10.808 c 0.396,1.087 1.933,1.087 2.33,0 l 4.063,-10.808 -2.063,-17.405 4.407,-6.644 c 0.822,-1.423 0.654,-3.244 -0.503,-4.505 z" />
	</g>
</svg>
