<svg xmlns="http://www.w3.org/2000/svg" viewBox="0 0 59.489002 96.666">
	<!-- http://www.flaticon.com/authors/freepik -->
	<g transform="translate(-18.588)">
		<path d="m48.333 73.296c9.519 0 17.263-7.744 17.263-17.262v-38.772c0-9.519-7.744-17.262-17.263-17.262s-17.262 7.743-17.262 17.262v38.773c0 9.518 7.743 17.261 17.262 17.261z"/>
		<path d="m76.078 45.715h-3.437c-1.104 0-2 0.896-2 2v7.029c0 12.3-10.008 22.308-22.309 22.308s-22.307-10.008-22.307-22.308v-7.029c0-1.104-0.896-2-2-2h-3.437c-1.104 0-2 0.896-2 2v7.029c0 14.707 11.433 27.667 26.026 29.506v4.98h-15.35c-1.104 0-2 0.896-2 2v3.436c0 1.104 0.896 2 2 2h38.138c1.104 0 2-0.896 2-2v-3.436c0-1.104-0.896-2-2-2h-15.351v-4.98c14.594-1.838 26.026-14.799 26.026-29.506v-7.029c0.001-1.105-0.895-2-1.999-2z"/>
	</g>
</svg>
