<svg xmlns="http://www.w3.org/2000/svg" viewBox="0 0 612 535.5" version="1.1">
	<g transform="translate(0,-38.25)">
		<path d="m331.68 425.38c-7.478 7.479-7.478 19.584 0 27.043 7.479 7.478 19.584 7.478 27.043 0l131.95-131.96c3.979-3.979 5.681-9.276 5.412-14.479 0.269-5.221-1.434-10.499-5.412-14.477l-131.94-131.94c-7.459-7.478-19.584-7.478-27.043 0-7.478 7.478-7.478 19.584 0 27.042l100.27 100.27h-412.83c-10.562 0.01-19.13 8.57-19.13 19.13 0 10.557 8.568 19.125 19.125 19.125h412.83l-100.27 100.25zm203.82-387.13h-382.5c-42.247 0-76.5 34.253-76.5 76.5v76.5h38.25v-76.5c0-21.114 17.12-38.25 38.25-38.25h382.5c21.133 0 38.25 17.136 38.25 38.25v382.5c0 21.114-17.117 38.25-38.25 38.25h-382.5c-21.133 0-38.25-17.117-38.25-38.25v-76.5h-38.25v76.5c0 42.247 34.253 76.5 76.5 76.5h382.5c42.247 0 76.5-34.253 76.5-76.5v-382.5c0-42.247-34.253-76.5-76.5-76.5z"/>
	</g>
</svg>
