<svg xmlns="http://www.w3.org/2000/svg" version="1.1" viewBox="0 0 764 535.5">
 <g transform="translate(152,-38.25)">
  <path d="m12.432 425.38c7.478 7.479 7.478 19.584 0 27.043-7.479 7.478-19.584 7.478-27.043 0l-131.95-131.96c-3.979-3.979-5.681-9.276-5.412-14.479-0.269-5.221 1.434-10.499 5.412-14.477l131.94-131.94c7.459-7.478 19.584-7.478 27.043 0 7.478 7.478 7.478 19.584 0 27.042l-100.27 100.27h412.83c10.562 0.01 19.13 8.57 19.13 19.13 0 10.557-8.568 19.125-19.125 19.125h-412.83l100.27 100.25z"/>
  <path d="m535.5 38.25h-382.5c-42.247 0-76.5 34.253-76.5 76.5v76.5h38.25v-76.5c0-21.114 17.12-38.25 38.25-38.25h382.5c21.133 0 38.25 17.136 38.25 38.25v382.5c0 21.114-17.117 38.25-38.25 38.25h-382.5c-21.133 0-38.25-17.117-38.25-38.25v-76.5h-38.25v76.5c0 42.247 34.253 76.5 76.5 76.5h382.5c42.247 0 76.5-34.253 76.5-76.5v-382.5c0-42.247-34.253-76.5-76.5-76.5z"/>
 </g>
</svg>
