<svg xmlns="http://www.w3.org/2000/svg" version="1.1" viewBox="0 0 80.13 67.433001">
 <path d="m48.355 11.574c3.705 2.323 6.303 6.254 6.776 10.817 1.511 0.706 3.188 1.112 4.966 1.112 6.491 0 11.752-5.261 11.752-11.751 0-6.491-5.261-11.752-11.752-11.752-6.429 0.002-11.644 5.169-11.742 11.574zm-7.699 24.062c6.491 0 11.752-5.262 11.752-11.752s-5.262-11.751-11.752-11.751-11.754 5.262-11.754 11.752 5.264 11.751 11.754 11.751zm4.985 0.801h-9.972c-8.297 0-15.047 6.751-15.047 15.048v12.195l0.031 0.191 0.84 0.263c7.918 2.474 14.797 3.299 20.459 3.299 11.059 0 17.469-3.153 17.864-3.354l0.785-0.397h0.084v-12.197c0.003-8.297-6.747-15.048-15.044-15.048zm19.443-12.132h-9.895c-0.107 3.959-1.797 7.524-4.47 10.088 7.375 2.193 12.771 9.032 12.771 17.11v3.758c9.77-0.358 15.4-3.127 15.771-3.313l0.785-0.398h0.084v-12.199c0-8.296-6.75-15.046-15.046-15.046zm-45.049-0.8c2.299 0 4.438-0.671 6.25-1.814 0.576-3.757 2.59-7.04 5.467-9.276 0.012-0.22 0.033-0.438 0.033-0.66 0-6.491-5.262-11.752-11.75-11.752-6.492 0-11.752 5.261-11.752 11.752 0 6.488 5.26 11.75 11.752 11.75zm10.554 10.888c-2.66-2.551-4.344-6.097-4.467-10.032-0.367-0.027-0.73-0.056-1.104-0.056h-9.971c-8.297 0-15.047 6.75-15.047 15.046v12.197l0.031 0.188 0.84 0.265c6.352 1.983 12.021 2.897 16.945 3.185v-3.683c0.002-8.078 5.396-14.915 12.773-17.11z"/>
</svg>
