<svg version="1.1" xmlns="http://www.w3.org/2000/svg" 
	 viewBox="0 0 26.77 25.914">

	<path d="M17.601,11.869c0.556-0.371,1.212-0.529,1.854-0.457l7.314-7.316L22.673,0l-7.315,7.316
		c0.074,0.65-0.09,1.314-0.476,1.877L17.601,11.869z"/>
	<polygon points="4.842,20.779 4.577,20.514 3.19,21.635 0.854,25.316 1.452,25.914 5.136,23.578 
		6.256,22.195 5.99,21.926 10.642,17.273 9.486,16.133 "/>
	<path d="M11.204,7.879c0.537-1.92,0.05-4.066-1.457-5.576C8.245,0.807,6.124,0.316,4.215,0.834l3.233,3.232
		L6.6,7.232L3.43,8.08L0.198,4.85c-0.516,1.908-0.026,4.029,1.473,5.529c1.571,1.572,3.835,2.033,5.815,1.389l0.018,0.018
		l13.299,13.299c0.526,0.525,1.216,0.791,1.905,0.791c0.69,0,1.378-0.266,1.906-0.791c1.051-1.049,1.051-2.754,0-3.811L11.204,7.879z
		 M22.94,24.633c-0.566,0-1.025-0.461-1.025-1.029c0-0.57,0.459-1.029,1.025-1.029c0.57,0,1.031,0.459,1.031,1.029
	C23.972,24.172,23.511,24.633,22.94,24.633z"/>
</svg>
