<svg version="1.1" viewBox="0 0 64.240663 106.017" xmlns="http://www.w3.org/2000/svg">
	<g transform="translate(-20.889)">
		<path d="m83.183 9.06-1.398-0.568c-0.354-0.144-0.726-0.217-1.102-0.217-1.226 0-2.32 0.787-2.722 1.958l-4.841 14.121c-0.262 0.764-1.183 1.734-1.932 2.035l-7.797 3.135h-14.692c-0.437 0-0.849 0.099-1.224 0.267-0.038 0.015-0.077 0.021-0.115 0.037l-24.664 10.709c-1.517 0.659-2.217 2.429-1.561 3.946l0.893 2.066c0.472 1.09 1.544 1.795 2.733 1.795 0.419 0 0.827-0.087 1.212-0.259l19.726-8.814v13.076c-0.677 0.403-1.265 0.953-1.615 1.572l-6.617 11.684c-0.414 0.73-0.478 1.553-0.175 2.258 0.302 0.705 0.942 1.226 1.757 1.43l6.89 1.723 2.371 30.255c0.209 2.663 2.24 4.748 4.622 4.748l0.192-0.004c1.092-0.052 2.108-0.552 2.866-1.404 0.758 0.852 1.775 1.352 2.867 1.404l0.192 0.004c2.383 0 4.413-2.085 4.622-4.748l2.362-30.132 7.155-1.838c0.812-0.208 1.45-0.733 1.75-1.44s0.236-1.53-0.177-2.259l-6.617-11.684c-0.35-0.618-0.938-1.169-1.615-1.572v-14.283l9.81-4.736c1.243-0.601 2.511-2.041 2.948-3.35l5.688-17.023c0.512-1.537-0.291-3.284-1.792-3.893zm-26.858 64.242c0.202 0 0.4-0.005 0.595-0.015l-0.929 11.858-0.934-11.916c0.396 0.046 0.825 0.073 1.268 0.073z"/>
		<path d="m44.134 22.124c0.921 0 1.777-0.281 2.489-0.759 1.847 3.345 5.407 5.617 9.49 5.617 4.239 0 7.906-2.452 9.686-6.007 0.791 0.707 1.823 1.149 2.965 1.149 2.465 0 4.471-2.006 4.471-4.472v-2.167c0-2.245-1.669-4.091-3.828-4.406-1.032-6.273-6.478-11.079-13.04-11.079-6.568 0-12.019 4.815-13.045 11.097-2.078 0.384-3.659 2.201-3.659 4.389v2.167c0 2.465 2.006 4.471 4.471 4.471zm12.233-20.124c5.514 0 10.103 3.998 11.045 9.246-0.481 0.154-0.925 0.379-1.32 0.676-1.649-3.882-5.501-6.612-9.979-6.612-4.348 0-8.096 2.58-9.82 6.285-0.303-0.169-0.624-0.303-0.965-0.398 0.962-5.224 5.541-9.197 11.039-9.197z"/>
	</g>
</svg>