<svg xmlns="http://www.w3.org/2000/svg"
	 viewBox="0 0 38 38"
	xmlns:c="credits"
	c:author="Appzgear"
	c:url="https://www.flaticon.com/authors/appzgear">
	 
	<path d="M22,19.999L22,19.999c-1.105,0-2,0.896-2,2.001c0,1.104,0.896,2,2,2h0c1.104,0,2-0.896,2-2
		C24,20.895,23.105,19.999,22,19.999z M16,18c1.104,0,2-0.896,2-2c0-1.105-0.896-2-2-2s-2,0.895-2,2C14,17.104,14.896,18,16,18z
		 M22,14L22,14c-1.105,0-2,0.895-2,2c0,1.104,0.895,2,2,2h0c1.104,0,2-0.896,2-2C24,14.895,23.105,14,22,14z M24,4H14v4h10V4z
		 M28,18c1.104,0,2-0.896,2-2c0-1.105-0.895-2-2-2s-2,0.895-2,2C26,17.104,26.896,18,28,18z M28,24c1.104,0,2-0.896,2-2
		c0-1.105-0.895-2-2-2s-2,0.895-2,2C26,23.104,26.896,24,28,24z M16,24c1.104,0,2-0.896,2-2c0-1.105-0.895-2.001-2-2.001
		S14,20.895,14,22C14,23.104,14.896,24,16,24z M10,30c1.104,0,2-0.896,2-2c0-1.105-0.896-2-2-2c-1.105,0-2,0.895-2,2
		C8,29.104,8.896,30,10,30z M34,4h-2v4h2v26H4V8h2V4H4C1.791,4,0,5.79,0,8v25.999C0,36.209,1.791,38,4,38h30
		c2.209,0,4-1.791,4-4.001V8C38,5.79,36.209,4,34,4z M10,24c1.104,0,2-0.896,2-2c0-1.105-0.896-2.001-2-2.001
		c-1.105,0-2,0.896-2,2.001C8,23.104,8.896,24,10,24z M10,18c1.104,0,2-0.896,2-2c0-1.105-0.896-2-2-2c-1.105,0-2,0.895-2,2
		C8,17.104,8.896,18,10,18z M16,30c1.104,0,2-0.896,2-2c0-1.105-0.896-2-2-2s-2,0.895-2,2C14,29.104,14.896,30,16,30z M10,8
		c1.104,0,2-0.896,2-2V2c0-1.105-0.895-2-2-2C8.896,0,8,0.895,8,2v4C8,7.104,8.896,8,10,8z M28,8c1.104,0,2-0.896,2-2V2
		c0-1.105-0.896-2-2-2c-1.105,0-2,0.895-2,2v4C26,7.104,26.896,8,28,8z"/>
</svg>
