<svg xmlns="http://www.w3.org/2000/svg" viewBox="0 0 85.765252 91.003129">
	<!-- http://www.flaticon.com/authors/freepik -->
	<g transform="translate(-2.6176 -.0005)">
		<path d="m80.845 47.014-3.127-3.128-38.209-38.208c-7.57-7.57-19.888-7.57-27.458 0-7.329 7.329-7.542 19.093-0.685 26.704 0.105 0.135 0.2 0.274 0.323 0.396l32.546 32.548c5.155 5.152 13.541 5.153 18.695 0 5.156-5.156 5.156-13.543 0.003-18.697l-18.63-18.629c-1.8-1.801-4.721-1.8-6.521 0-1.802 1.8-1.803 4.719 0 6.521l18.629 18.629c1.56 1.561 1.56 4.098-0.001 5.656-1.561 1.561-4.098 1.561-5.656 0l-32.186-32.188c-3.976-3.977-3.975-10.444 0-14.422 3.978-3.975 10.444-3.975 14.42 0l38.208 38.21 3.129 3.127c6.454 6.454 6.454 16.957 0 23.41-6.453 6.454-16.955 6.454-23.41 0l-40.427-40.424c-1.8-1.8-4.719-1.801-6.52 0-1.801 1.8-1.8 4.72 0 6.521l40.426 40.425c10.05 10.05 26.401 10.052 36.451 0.003 10.051-10.052 10.05-26.405 0-36.454z"/>
	</g>
</svg>
