<svg xmlns="http://www.w3.org/2000/svg" viewBox="0 0 50 58.201">
	<!-- http://www.flaticon.com/authors/madebyoliver -->
	<g transform="translate(-4.1)">
 		<path d="m31.707 33.07c-0.87 0.027-1.74 0.042-2.606 0.042-0.869 0-1.742-0.014-2.614-0.042-7.341-0.201-13.191-1.238-17.403-2.717-1.98-0.668-3.675-1.454-4.984-2.353v7.111 0.5 0.5 1.289c2.846 2.971 12.394 5.711 25 5.711s22.154-2.74 25-5.711v-1.289-0.5-0.5-7.111c-1.318 0.905-3.028 1.697-5.025 2.367-4.21 1.472-10.048 2.503-17.368 2.703z"/>
 		<path d="m4.1 14.889v7.111 0.5 0.5 1.289c2.638 2.754 11.033 5.31 22.286 5.668 0.115 0.004 0.233 0.005 0.349 0.008 0.326 0.009 0.651 0.018 0.982 0.023 0.457 0.008 0.918 0.012 1.383 0.012s0.926-0.004 1.383-0.011c0.33-0.005 0.656-0.014 0.982-0.023 0.116-0.003 0.234-0.005 0.349-0.008 11.253-0.359 19.648-2.915 22.286-5.668v-1.29-0.5-0.5-7.111c-4.867 3.343-15.156 5.111-25 5.111s-20.132-1.768-25-5.111z"/>
 		<path d="m53.965 8.542c-1.122-4.301-9.75-8.542-24.865-8.542-15.077 0-23.696 4.22-24.853 8.51-0.085 0.147-0.147 0.308-0.147 0.49v0.5 1.806c2.837 2.961 12.317 5.694 25 5.694s22.164-2.733 25-5.694v-1.806-0.5c0-0.168-0.056-0.319-0.135-0.458z"/>
 		<path d="m4.1 41v8.201c0 0.162 0.043 0.315 0.117 0.451 1.181 4.895 11.747 8.549 24.883 8.549 13.106 0 23.655-3.639 24.875-8.516 0.08-0.144 0.125-0.309 0.125-0.484v-8.199c-4.135 2.911-12.655 5.199-25 5.199-12.346 0-20.866-2.29-25-5.201z"/>
	</g>
</svg>
