<svg xmlns="http://www.w3.org/2000/svg" viewBox="0 0 97.832 71.046997">
	<!-- http://www.flaticon.com/authors/freepik -->
	<g transform="translate(0,-13.392)">
		<path d="m92.402 53.824c0.367-1.621 0.578-3.301 0.578-5.031 0-12.551-10.174-22.727-22.726-22.727-2.485 0-4.871 0.413-7.108 1.15-5.502-8.327-14.94-13.824-25.668-13.824-16.98 0-30.746 13.765-30.746 30.746 0 2.692 0.349 5.303 0.998 7.792-4.667 3.215-7.73 8.59-7.73 14.685 0 9.844 7.979 17.824 17.824 17.824h62.184c9.846 0 17.824-7.98 17.824-17.824 0-5.023-2.084-9.552-5.43-12.791zm-26.595 5.655-16.395 16.394c-0.133 0.133-0.309 0.205-0.496 0.205-0.188 0-0.363-0.072-0.495-0.205l-16.395-16.394c-0.132-0.132-0.206-0.309-0.206-0.495s0.073-0.362 0.206-0.495l4.624-4.623c0.264-0.266 0.726-0.266 0.991 0l7.054 7.053v-30.296c0-0.386 0.315-0.701 0.701-0.701h7.042c0.387 0 0.701 0.314 0.701 0.701v30.295l7.053-7.053c0.266-0.266 0.728-0.266 0.992 0l4.623 4.623c0.133 0.133 0.207 0.309 0.207 0.495s-0.076 0.364-0.207 0.496z"/>
	</g>
</svg>
