<?xml version="1.0" encoding="UTF-8" standalone="no"?>
<svg xmlns="http://www.w3.org/2000/svg"
	viewBox="0 0 485.81088 440.52499"
	xmlns:c="credits"
	c:author="Gregor Cresnar"
	c:url="https://www.flaticon.com/authors/gregor-cresnar">
	<g transform="translate(2.7453201e-4,-22.643)">
		<path d="m 476.099,353.968 -170.2,-294.8 c -27.8,-48.7 -98.1,-48.7 -125.8,0 l -170.3,294.8 c -27.8,48.7 6.8,109.2 62.9,109.2 h 339.9 c 56.1,0 91.3,-61.1 63.5,-109.2 z m -233.2,43.8 c -14.8,0 -27.1,-12.3 -27.1,-27.1 0,-14.8 12.3,-27.1 27.1,-27.1 14.8,0 27.1,12.3 26.5,27.8 0.7,14.1 -12.3,26.4 -26.5,26.4 z m 24.7,-175.2 c -1.2,21 -2.5,41.9 -3.7,62.9 -0.6,6.8 -0.6,13 -0.6,19.7 -0.6,11.1 -9.3,19.7 -20.4,19.7 -11.1,0 -19.7,-8 -20.4,-19.1 -1.8,-32.7 -3.7,-64.8 -5.5,-97.5 -0.6,-8.6 -1.2,-17.3 -1.9,-25.9 0,-14.2 8,-25.9 21,-29.6 13,-3.1 25.9,3.1 31.5,15.4 1.9,4.3 2.5,8.6 2.5,13.6 -0.6,13.7 -1.9,27.3 -2.5,40.8 z"/>
	</g>
</svg>
