<svg xmlns="http://www.w3.org/2000/svg" viewBox="0 0 51.969001 96.123"
	xmlns:c="credits"
	c:url="https://www.flaticon.com/authors/freepik"
	c:author="Freepik">

	<path d="M 50.012,0.02 37.547,0 C 23.543,0 14.493,9.285 14.493,23.656 V 34.563 H 1.96 C 0.877,34.563 0,35.441 0,36.524 v 15.803 c 0,1.083 0.878,1.96 1.96,1.96 h 12.533 v 39.876 c 0,1.083 0.877,1.96 1.96,1.96 h 16.352 c 1.083,0 1.96,-0.878 1.96,-1.96 V 54.287 h 14.654 c 1.083,0 1.96,-0.877 1.96,-1.96 l 0.006,-15.803 c 0,-0.52 -0.207,-1.018 -0.574,-1.386 -0.367,-0.368 -0.867,-0.575 -1.387,-0.575 H 34.765 v -9.246 c 0,-4.444 1.059,-6.7 6.848,-6.7 l 8.397,-0.003 c 1.082,0 1.959,-0.878 1.959,-1.96 V 1.98 c 0,-1.081 -0.876,-1.958 -1.957,-1.96 z" />

</svg>
