<svg xmlns="http://www.w3.org/2000/svg" viewBox="0 0 69.066004 96.992">
	<!-- http://www.flaticon.com/authors/freepik -->
	<g transform="translate(-13.963)">
		<path d="m82.297 17.002-16.269-16.27c-0.469-0.469-1.104-0.732-1.768-0.732h-47.797c-1.381 0-2.5 1.119-2.5 2.5v91.992c0 1.381 1.119 2.5 2.5 2.5h64.066c1.381 0 2.5-1.119 2.5-2.5v-75.723c0-0.664-0.263-1.298-0.732-1.767zm-19.738 20.699c3.465 0 6.271 2.809 6.271 6.271s-2.809 6.271-6.271 6.271c-3.461 0-6.271-2.809-6.271-6.271s2.81-6.271 6.271-6.271zm12.648 51.959-52.843 0.027v-30.388c3.644-5.738 8.62-10.775 14.904-10.826 14.658-0.119 22.613 26.926 22.613 26.926s5.721-12.959 15.325-8.062l0.001 22.323zm-13.156-67.318c-0.337 0-0.658-0.133-0.896-0.371-0.237-0.238-0.372-0.561-0.372-0.897l0.002-15.126 16.395 16.395-15.129-0.001z"/>
	</g>
</svg>
