<svg xmlns="http://www.w3.org/2000/svg" viewBox="0 0 69.066004 96.992">
	<!-- http://www.flaticon.com/authors/freepik -->
	<g transform="translate(-13.963)">
		<path d="m82.297 16.976-16.269-16.244c-0.469-0.469-1.104-0.732-1.768-0.732h-47.797c-1.381 0-2.5 1.119-2.5 2.5v91.992c0 1.381 1.119 2.5 2.5 2.5h64.066c1.381 0 2.5-1.119 2.5-2.5v-75.748c0-0.663-0.263-1.299-0.732-1.768zm-15.412 46.381c0 0.83-0.672 1.5-1.5 1.5h-9.777l6.924 6.926c0.586 0.586 0.586 1.535 0 2.121l-2.702 2.703c-0.28 0.281-0.663 0.438-1.062 0.438-0.397 0-0.778-0.157-1.061-0.438l-9.211-9.213-9.213 9.213c-0.281 0.281-0.663 0.438-1.061 0.438s-0.779-0.157-1.061-0.438l-2.702-2.703c-0.586-0.586-0.586-1.535 0-2.121l6.924-6.926h-9.777c-0.829 0-1.5-0.67-1.5-1.5v-25.644c0-0.828 0.671-1.5 1.5-1.5h33.777c0.828 0 1.5 0.672 1.5 1.5v25.645h0.002zm-4.834-41.014c-0.337 0-0.658-0.134-0.896-0.372-0.237-0.238-0.372-0.561-0.372-0.897l0.002-15.126 16.395 16.396-15.129-0.001z"/>
		<rect y="53.751" x="34.764" height="3.853" width="26.401"/>
		<circle cy="45.9" cx="40.435" r="4.776"/>
		<rect y="41.75" x="47.97" height="6.179" width="13.195"/>
	</g>
</svg>
