<svg xmlns="http://www.w3.org/2000/svg" viewBox="0 0 69.066004 96.992">
	<!-- http://www.flaticon.com/authors/freepik -->
	<g transform="translate(-13.963)">
		<path d="m82.297 16.976-16.269-16.244c-0.469-0.469-1.104-0.732-1.768-0.732h-47.797c-1.381 0-2.5 1.119-2.5 2.5v91.992c0 1.381 1.119 2.5 2.5 2.5h64.066c1.381 0 2.5-1.119 2.5-2.5v-75.748c0-0.663-0.263-1.299-0.732-1.768zm-48.289 67.379c0 0.828-0.672 1.5-1.5 1.5h-11.262c-0.828 0-1.5-0.672-1.5-1.5v-4.39c0-0.829 0.672-1.5 1.5-1.5h11.262c0.828 0 1.5 0.671 1.5 1.5v4.39zm0-15c0 0.828-0.672 1.5-1.5 1.5h-11.262c-0.828 0-1.5-0.672-1.5-1.5v-4.39c0-0.829 0.672-1.5 1.5-1.5h11.262c0.828 0 1.5 0.671 1.5 1.5v4.39zm0-15c0 0.828-0.672 1.5-1.5 1.5h-11.262c-0.828 0-1.5-0.672-1.5-1.5v-4.39c0-0.829 0.672-1.5 1.5-1.5h11.262c0.828 0 1.5 0.671 1.5 1.5v4.39zm0-15c0 0.829-0.672 1.5-1.5 1.5h-11.262c-0.828 0-1.5-0.671-1.5-1.5v-4.389c0-0.829 0.672-1.5 1.5-1.5h11.262c0.828 0 1.5 0.671 1.5 1.5v4.389zm-12.762-13.5c-0.828 0-1.5-0.671-1.5-1.5v-11.888c0-0.829 0.672-1.5 1.5-1.5h28.012c0.828 0 1.5 0.671 1.5 1.5v11.889c0 0.829-0.672 1.5-1.5 1.5l-28.012-0.001zm53.512 58.5c0 0.828-0.672 1.5-1.5 1.5h-32.762c-0.828 0-1.5-0.672-1.5-1.5v-4.39c0-0.829 0.672-1.5 1.5-1.5h32.762c0.828 0 1.5 0.671 1.5 1.5v4.39zm0-15c0 0.828-0.672 1.5-1.5 1.5h-32.762c-0.828 0-1.5-0.672-1.5-1.5v-4.39c0-0.829 0.672-1.5 1.5-1.5h32.762c0.828 0 1.5 0.671 1.5 1.5v4.39zm0-15c0 0.828-0.672 1.5-1.5 1.5h-32.762c-0.828 0-1.5-0.672-1.5-1.5v-4.39c0-0.829 0.672-1.5 1.5-1.5h32.762c0.828 0 1.5 0.671 1.5 1.5v4.39zm0-15c0 0.829-0.672 1.5-1.5 1.5h-32.762c-0.828 0-1.5-0.671-1.5-1.5v-4.389c0-0.829 0.672-1.5 1.5-1.5h32.762c0.828 0 1.5 0.671 1.5 1.5v4.389zm-12.707-17.012c-0.337 0-0.658-0.134-0.896-0.372-0.237-0.238-0.372-0.561-0.372-0.897l0.002-15.126 16.395 16.396-15.129-0.001z"/>
	</g>
</svg>
