<svg xmlns="http://www.w3.org/2000/svg" viewBox="0 0 69.066004 96.992">
	<!-- http://www.flaticon.com/authors/freepik -->
	<g transform="translate(-13.963)">
		<path d="m82.297 17.002-16.269-16.27c-0.469-0.469-1.104-0.732-1.768-0.732h-9.527v6.883h-2.583v-1.899h-3.654l0.007-4.984h-32.04c-1.381 0-2.5 1.119-2.5 2.5v91.992c0 1.381 1.119 2.5 2.5 2.5h64.066c1.381 0 2.5-1.119 2.5-2.5v-75.723c0-0.664-0.263-1.298-0.732-1.767zm-30.145-3.051v-1.899h2.58v8.387h-2.58v-1.899h-3.656v-4.588l3.656-0.001zm-3.656 18.055v-4.588h3.656v-1.9h2.58v8.387h-2.58v-1.899h-3.656zm-6.237-26.691h2.581v1.897h3.656v4.589h-3.656v1.9h-2.581v-8.386zm0 13.465h2.581v1.898h3.656v4.587h-3.656v1.9h-2.581v-8.385zm6.237 38.577c-3.625 0-6.563-2.81-6.563-7.047 0-10.918 2.938-15.057 6.563-15.057s6.562 4.138 6.562 15.057c0.001 4.239-2.937 7.047-6.562 7.047zm13.555-35.015c-0.337 0-0.658-0.133-0.896-0.371-0.237-0.238-0.372-0.561-0.372-0.897l0.002-15.126 16.395 16.395-15.129-0.001z"/>
		<path d="m49.48 50.311h-1.97c-1.268 0-2.292 1.026-2.292 2.295 0 1.266 1.025 2.293 2.292 2.293h1.97c1.27 0 2.293-1.027 2.293-2.293 0-1.268-1.024-2.295-2.293-2.295z"/>
	</g>
</svg>
