<svg xmlns="http://www.w3.org/2000/svg" viewBox="0 0 69.066004 96.992">
	<!-- http://www.flaticon.com/authors/freepik -->
	<g transform="translate(-13.963)">
		<path d="m82.297 17.002-16.269-16.27c-0.469-0.469-1.104-0.732-1.768-0.732h-47.797c-1.381 0-2.5 1.119-2.5 2.5v91.992c0 1.381 1.119 2.5 2.5 2.5h64.066c1.381 0 2.5-1.119 2.5-2.5v-75.723c0-0.664-0.263-1.298-0.732-1.767zm-10.551 23.982c0 0.277-0.225 0.5-0.5 0.5h-2.006l-8.396 31.881c-0.058 0.219-0.256 0.373-0.482 0.373h-5.1c-0.227 0-0.425-0.152-0.482-0.371l-6.284-23.527-6.283 23.527c-0.058 0.219-0.256 0.371-0.483 0.371h-5.099c-0.227 0-0.426-0.154-0.483-0.373l-8.396-31.881h-2.006c-0.276 0-0.5-0.223-0.5-0.5v-5.23c0-0.275 0.224-0.5 0.5-0.5h6.574c0.228 0 0.426 0.154 0.484 0.375l6.411 24.574 6.418-24.379c0.058-0.221 0.256-0.373 0.483-0.373h4.76c0.228 0 0.427 0.152 0.483 0.373l6.418 24.379 6.41-24.574c0.059-0.221 0.257-0.375 0.484-0.375h6.574c0.275 0 0.5 0.225 0.5 0.5v5.23zm-9.695-18.642c-0.337 0-0.658-0.133-0.896-0.371-0.237-0.238-0.372-0.561-0.372-0.897l0.002-15.126 16.395 16.395-15.129-0.001z"/>
	</g>
</svg>
