<svg xmlns="http://www.w3.org/2000/svg" viewBox="0 0 69.066004 96.992">
	<!-- http://www.flaticon.com/authors/freepik -->
	<g transform="translate(-13.963)">
		<path d="m82.297 17.002-16.269-16.27c-0.469-0.469-1.104-0.732-1.768-0.732h-47.797c-1.381 0-2.5 1.119-2.5 2.5v91.992c0 1.381 1.119 2.5 2.5 2.5h64.066c1.381 0 2.5-1.119 2.5-2.5v-75.723c0-0.664-0.263-1.298-0.732-1.767zm-12.468 15.681c0 1.104-0.896 2-2 2h-5.746c-0.585 0.742-1.914 2.436-3.03 3.867l-6.851 8.759 11.174 16.561h4.453c1.104 0 2 0.896 2 2v0.765c0 1.104-0.896 2-2 2h-15.128c-1.104 0-2-0.896-2-2v-0.765c0-1.104 0.896-2 2-2h1.99l-7.137-10.711-8.564 10.65h5.301c1.104 0 2 0.896 2 2v0.766c0 1.104-0.896 2-2 2h-15.128c-1.104 0-2-0.896-2-2v-0.766c0-1.104 0.896-2 2-2h4.614l11.415-14.309-10.257-14.878h-4.617c-1.104 0-2-0.896-2-2v-0.765c0-1.104 0.896-2 2-2h15.122c1.103 0 1.997 0.893 2 1.995l0.001 0.48c0.014 0.095 0.021 0.19 0.021 0.289 0 1.104-0.895 2-2 2-0.005 0.001-0.013 0.001-0.02 0h-2.086l6.3 9.01 6.997-8.949h-3.952c-1.104 0-2-0.896-2-2v-0.765c0-1.104 0.896-2 2-2h15.128c1.104 0 2 0.896 2 2v0.766zm-7.778-10.341c-0.337 0-0.658-0.133-0.896-0.371-0.237-0.238-0.372-0.561-0.372-0.897l0.002-15.126 16.395 16.395-15.129-0.001z"/>
	</g>
</svg>
