<svg xmlns="http://www.w3.org/2000/svg" viewBox="0 0 69.066004 96.992">
	<!-- http://www.flaticon.com/authors/freepik -->
	<g transform="translate(-13.963)">
		<path d="m49.729 51.841c-3.969-3.19-7.328-6.182-9.644-8.323-0.796 3.415-1.903 7.845-2.783 11.313 3.633-1.308 7.836-2.239 12.523-2.778l-0.272-0.203 0.176-0.009z"/>
		<path d="m82.297 17.002-16.269-16.27c-0.469-0.469-1.104-0.732-1.768-0.732h-47.797c-1.381 0-2.5 1.119-2.5 2.5v91.992c0 1.381 1.119 2.5 2.5 2.5h64.066c1.381 0 2.5-1.119 2.5-2.5v-75.723c0-0.664-0.263-1.298-0.732-1.767zm-10.072 41.193-0.037 0.209c-0.692 2.734-2.553 4.285-5.108 4.285-1.618 0-3.013-0.656-3.276-0.788l-0.134-0.074c-2.819-1.765-5.716-3.741-8.628-5.89-5.365 0.281-12.941 1.224-19.069 4.091l-0.335 1.295c-1.996 7.349-5.909 8.142-7.499 8.142-0.362 0-0.621-0.043-0.707-0.064l-0.223-0.06c-1.054-0.383-1.795-1.079-2.186-2.028-0.786-1.922 0.203-4.176 0.409-4.608l0.324-0.494c1.715-1.963 3.911-3.69 6.529-5.137 1.199-4.67 3.259-12.795 4.171-17.018-1.057-1.039-1.679-1.686-1.811-1.823-2.498-2.774-3.429-5.226-2.8-7.318 0.596-1.99 2.438-2.959 3.433-3.218 1.58-0.43 3.264 0.009 4.31 1.157 1.483 1.631 2.015 4.779 1.581 9.357-0.01 0.107-0.025 0.23-0.046 0.371 2.865 2.731 8.485 7.877 15.265 12.987 1.028-0.035 2.062-0.053 3.074-0.053 3.396 0 5.669 0.188 6.09 0.226 0.047 0 3.573 0.103 5.529 2.397 0.94 1.108 1.336 2.509 1.144 4.056zm-10.174-35.853c-0.337 0-0.658-0.133-0.896-0.371-0.237-0.238-0.372-0.561-0.372-0.897l0.002-15.126 16.395 16.395-15.129-0.001z"/>
	</g>
</svg>
