<svg xmlns="http://www.w3.org/2000/svg" viewBox="0 0 20.68 31.357">
	<!-- http://www.flaticon.com/authors/freepik -->
	<path d="m 9.916,0 c 5.424,0 10.764,2.498 10.764,8.473 0,5.51 -6.314,7.629 -7.67,9.62 -1.018,1.482 -0.678,3.561 -3.475,3.561 -1.822,0 -2.712,-1.482 -2.712,-2.838 0,-5.045 7.414,-6.188 7.414,-10.342 0,-2.287 -1.523,-3.643 -4.067,-3.643 -5.424,0 -3.306,5.592 -7.414,5.592 C 1.273,10.423 0,9.533 0,7.839 0,3.683 4.746,0 9.916,0 z M 9.705,24.407 c 1.905,0 3.475,1.566 3.475,3.475 0,1.91 -1.568,3.475 -3.475,3.475 -1.907,0 -3.476,-1.564 -3.476,-3.475 0,-1.909 1.569,-3.475 3.476,-3.475 z" />
</svg>
