<svg xmlns="http://www.w3.org/2000/svg" viewBox="0 0 51.412743 49.773697">
	<path id="path4" d="m50.769 24.285c0.932-1.025 0.842-2.596-0.201-3.508l-22.977-20.105c-1.043-0.912-2.715-0.893-3.736 0.043l-23.055 21.134c-1.021 0.936-1.071 2.505-0.111 3.503l0.578 0.602c0.959 0.998 2.509 1.117 3.46 0.265l1.723-1.543v22.59c0 1.386 1.123 2.508 2.508 2.508h8.987c1.385 0 2.508-1.122 2.508-2.508v-15.804h11.463v15.804c-0.02 1.385 0.971 2.507 2.356 2.507h9.524c1.385 0 2.508-1.122 2.508-2.508v-22.271s0.476 0.417 1.063 0.933c0.586 0.515 1.817 0.102 2.749-0.924l0.653-0.718z"/>
</svg>
