<svg xmlns="http://www.w3.org/2000/svg" viewBox="0 0 512 512">
	<!-- http://www.flaticon.com/authors/freepik -->
	<polygon points="49.548 49.548 173.42 49.548 173.42 0 0 0 0 173.42 49.548 173.42"/>
	<polygon points="462.45 173.42 512 173.42 512 0 338.58 0 338.58 49.548 462.45 49.548"/>
	<polygon points="338.58 512 512 512 512 338.58 462.45 338.58 462.45 462.45 338.58 462.45"/>
	<polygon points="0 512 173.42 512 173.42 462.45 49.548 462.45 49.548 338.58 0 338.58"/>
	<polygon points="231.23 231.23 140.39 231.23 140.39 280.77 231.23 280.77 231.23 371.61 280.77 371.61 280.77 280.77 371.61 280.77 371.61 231.23 280.77 231.23 280.77 140.39 231.23 140.39"/>
</svg>
