<svg viewBox="0 0 330.28018 478.64508" xmlns="http://www.w3.org/2000/svg" >
	<g transform="translate(-74.183 .00029186)">
		<path d="m239.32 129.86c18.002 0 35.423-7.846 47.369-21.311 12.06-13.595 17.72-32.05 15.43-50.073-2.25-17.677-12.15-33.861-26.78-44.006-15-10.394-34.19-13.792-51.85-9.244-17.153 4.415-31.95 16.163-40.21 31.822-8.522 16.159-9.584 35.729-2.879 52.723 6.488 16.441 19.916 29.702 36.439 35.979 7.166 2.723 14.817 4.108 22.482 4.108z" />
		<path d="m396.38 3.368c-8.543-5.935-20.276-3.821-26.213 4.721 0 0-58.797 89.646-78.961 113.65-15.046 17.913-29.379 22.915-50.979 19.929-10.667-1.475-142.83-34.333-142.83-34.333-9.274-2.24-19.01 3.081-22.171 12.073-3.052 8.68 0.821 18.597 8.966 22.89 0.742 0.391 1.511 0.732 2.298 1.022l143.35 52.762c0.816 2.469 7.846 21.487 11.833 41.393 2.538 12.663 3.614 25.566 4.345 38.447 0.515 9.032 0.375 18.069 0.271 27.109-0.107 9.317 1.421 18.433 5.113 27.023-0.316 11.767-0.925 23.531-1.925 35.261-1.095 12.834-3.107 25.591-5.204 38.309-2.65 16.069-6.804 22.246-7.083 22.665-5.144 1.946-11.37 1.279-16.696 0.58-6.363-0.835-12.632-2.338-18.786-4.14-5.408-1.584-10.743-3.417-16-5.444-4.18-1.612-8.248-3.452-12.368-5.201-1.917-0.813-3.822-1.714-5.931-2.171-2.166-0.47-4.398-0.622-6.608-0.453-4.376 0.335-8.627 1.935-12.134 4.572-7.324 5.512-10.712 15.145-8.477 24.025 1.583 6.286 5.82 11.695 11.546 14.734 18.377 10.05 38.03 18.672 58.566 23.128 11.119 2.412 22.655 3.601 33.977 1.973 11.763-1.69 22.945-6.623 31.485-14.993 2.037-1.996 3.917-4.192 5.608-6.491 0 0.007-0.004 0.014-0.012 0.02-0.021 0.029-0.044 0.061-0.064 0.093 0.928-1.544 2.104-2.964 3.082-4.479 1.666-2.574 3.203-5.23 4.625-7.947 2.847-5.436 5.281-11.085 7.445-16.823 4.344-11.519 7.706-23.4 10.591-35.36 1.895-7.852 3.583-15.753 5.111-23.684 3.197-0.14 6.364-0.512 9.504-1.126 5.679 11.608 10.942 23.428 15.409 35.56-11.96 4.665-17.812 18.745-12.727 30.529 3.441 7.979 7.622 15.603 13.492 22.085 6.381 7.046 14.46 12.516 23.684 15.054 5.044 1.39 10.34 1.857 15.518 1.06 10.4-1.632 19.107-9.728 20.96-20.681 4.004-23.586 0.181-47.695-5.239-70.752-2.937-12.491-6.513-24.835-10.503-37.028-2.612-7.984-5.317-15.978-8.453-23.775-0.622-1.547-1.216-3.106-1.878-4.638 0.774-5.185 0.839-10.385 0.409-15.602-0.43-5.215-0.787-10.444-1.325-15.649-1.272-12.316-2.989-24.617-5.307-36.781-4.83-25.334-11.619-50.367-21.603-74.186-2.712-6.47-5.625-12.848-8.872-19.067l67.01-125.53c4.456-8.317 2.068-18.83-5.863-24.341-8.543-5.935 7.931 5.511 0 0z" />
	</g>
</svg>
