<svg xmlns="http://www.w3.org/2000/svg" viewBox="0 0 95.494 82.717992">
	<!-- http://www.flaticon.com/authors/freepik -->
	<g transform="translate(0 -6.388)">
		<circle cy="17.294" cx="10.906" r="10.906"/>
		<circle cy="47.294" cx="10.906" r="10.906"/>
		<circle cy="78.2" cx="10.906" r="10.906"/>
		<path d="m34.258 24.43h59.236c0.529 0 1.039-0.211 1.414-0.586s0.586-0.884 0.586-1.414l-0.002-10.271c0-1.104-0.896-2-2-2h-59.234c-1.104 0-2 0.896-2 2v10.271c0 1.104 0.895 2 2 2z"/>
		<path d="m93.492 40.158h-59.234c-1.104 0-2 0.896-2 2v10.271c0 1.104 0.896 2 2 2h59.236c0.529 0 1.039-0.211 1.414-0.586s0.586-0.885 0.586-1.414l-0.002-10.271c0-1.104-0.894-2-2-2z"/>
		<path d="m93.492 71.064h-59.234c-1.104 0-2 0.896-2 2v10.271c0 1.104 0.896 2 2 2h59.236c0.529 0 1.039-0.211 1.414-0.586s0.586-0.885 0.586-1.414l-0.002-10.271c0-1.104-0.894-2-2-2z"/>
	</g>
</svg>
