<svg xmlns="http://www.w3.org/2000/svg" viewBox="0 0 95.425003 95.667">
	<!-- http://www.flaticon.com/authors/freepik -->
	<g transform="translate(-.121)">
		<path
			transform="translate(76.5) scale(-1,1)"
			d="m 39.24275,69.892863 35.5023,-20.499301 c 0.5571,-0.3204 0.9,-0.9162 0.9,-1.5579 0,-0.6417 -0.3429,-1.2375 -0.9,-1.5588 l -35.5023,-20.502 c -0.5571,-0.3213 -1.2429,-0.3213 -1.8,0 -0.5571,0.3213 -0.9,0.9162 -0.9,1.5588 l 0,9.5445 -30.6468,0 c -0.9936,0 -1.8,0.8064 -1.8,1.8 l 0,18.309601 c 0,0.9936 0.8064,1.8 1.8,1.8 l 30.6477,0 0,9.5436 c 0,0.6444 0.3429,1.2375 0.9,1.5588 0.279,0.162 0.5895,0.2412 0.9,0.2412 0.3105,0 0.621,-0.0792 0.8991,-0.2385 z"/>
		<path
			d="m80.775 0h-40.749c-1.104 0-2 0.896-2 2v6c0 1.104 0.896 2 2 2h40.749c2.632 0 4.771 2.141 4.771 4.771v66.125c0 2.631-2.141 4.771-4.771 4.771h-40.749c-1.104 0-2 0.896-2 2v6c0 1.104 0.896 2 2 2h40.749c8.146 0 14.771-6.627 14.771-14.771v-66.124c0-8.145-6.626-14.772-14.771-14.772z" />
	</g>
</svg>
