<svg xmlns="http://www.w3.org/2000/svg" viewBox="0 0 92.833 89.333999">
	<!-- http://www.flaticon.com/authors/freepik -->
	<g transform="translate(0,-1.75)">
		<path d="m89.834 1.75h-86.834c-1.654 0-3 1.346-3 3v13.334c0 1.654 1.346 3 3 3h86.833c1.653 0 3-1.346 3-3v-13.334c0.001-1.654-1.345-3-2.999-3z"/>
		<path d="m89.834 36.75h-86.834c-1.654 0-3 1.346-3 3v13.334c0 1.654 1.346 3 3 3h86.833c1.653 0 3-1.346 3-3v-13.334c0.001-1.654-1.345-3-2.999-3z"/>
		<path d="m89.834 71.75h-86.834c-1.654 0-3 1.346-3 3v13.334c0 1.654 1.346 3 3 3h86.833c1.653 0 3-1.346 3-3v-13.334c0.001-1.655-1.345-3-2.999-3z"/>
	</g>
</svg>
