<svg xmlns="http://www.w3.org/2000/svg" viewBox="0 0 95.337 83.776002">
	<!-- http://www.flaticon.com/authors/freepik -->
	<g transform="translate(0,-5.78)">
		<path d="m92.938 5.78h-90.538c-1.324 0-2.4 1.077-2.4 2.4v63.438c0 1.322 1.077 2.4 2.4 2.4h90.538c1.323 0 2.399-1.078 2.399-2.4v-63.437c0.001-1.324-1.075-2.401-2.399-2.401zm-4.801 61.037h-80.936v-53.835h80.936v53.835z"/>
		<path d="m65.072 81.756h-4.801v-4.402c0-0.663-0.539-1.2-1.201-1.2h-22.803c-0.663 0-1.2 0.537-1.2 1.2v4.402h-4.801c-0.663 0-1.2 0.537-1.2 1.199v5.401c0 0.663 0.538 1.2 1.2 1.2h34.806c0.662 0 1.199-0.537 1.199-1.2v-5.401c0-0.662-0.537-1.199-1.199-1.199z"/>
		<path d="m15.303 19.077c-1.104 0-2 0.896-2 2v16.672l18.671-18.672h-16.671z"/>
	</g>
</svg>
