<svg xmlns="http://www.w3.org/2000/svg" viewBox="0 0 92.451503 97.104244">
	<!-- http://www.flaticon.com/authors/freepik -->
	<g transform="translate(-2.3259 .00024034)">
		<path d="m93.82 0.37c-0.697-0.469-1.6-0.494-2.32-0.066l-88.112 52.281c-0.748 0.444-1.158 1.291-1.043 2.152 0.113 0.86 0.732 1.571 1.568 1.805l22.389 6.233c0.68 0.188 1.409 0.036 1.956-0.41l35.768-29.219-24.951 31.847c-0.301 0.382-0.462 0.854-0.462 1.339v28.602c0 0.966 0.636 1.814 1.563 2.083 0.201 0.06 0.405 0.087 0.607 0.087 0.728 0 1.425-0.366 1.83-1.004l15.577-24.45 22.772 6.338c0.598 0.167 1.24 0.067 1.764-0.271 0.521-0.339 0.873-0.885 0.967-1.499l11.06-73.725c0.125-0.828-0.238-1.655-0.933-2.123z"/>
	</g>
</svg>
