<svg xmlns="http://www.w3.org/2000/svg" viewBox="0 0 71.947 97.712001">
	<!-- http://www.flaticon.com/authors/freepik -->
	<g transform="translate(-12.883)">
		<path d="m48.855 0c-19.834 0-35.972 16.138-35.972 35.974 0 5.174 1.059 10.114 3.146 14.684 8.994 19.681 26.238 40.46 31.31 46.359 0.38 0.441 0.934 0.695 1.517 0.695s1.137-0.254 1.517-0.695c5.07-5.898 22.314-26.676 31.311-46.359 2.088-4.57 3.146-9.51 3.146-14.684-0.002-19.836-16.14-35.974-35.975-35.974zm0 54.659c-10.303 0-18.686-8.383-18.686-18.686 0-10.304 8.383-18.687 18.686-18.687s18.686 8.383 18.686 18.687c0.001 10.303-8.382 18.686-18.686 18.686z"/>
	</g>
</svg>
