<svg xmlns="http://www.w3.org/2000/svg"
	viewBox="0 0 337.65308 439"
	xmlns:c="credits"
	c:author="Freepik"
	c:url="https://www.flaticon.com/authors/freepik">
	<g transform="translate(-50.673)">
		<path d="m388.32 65.216c-0.01-1.027-0.407-2.035-1.163-2.79l-61.26-61.254c-0.76-0.761-1.76-1.143-2.77-1.158-0.02-0.002-272.46-0.014-272.46-0.014v439h337.65c0.001 0-0.008-373.77-0.008-373.78zm-56.14-46.454 42.491 42.492h-47.446c7.298-16.754 7.008-31.769 4.955-42.492zm48.15 412.24h-321.65v-423h261.88c2.939 6.725 10.689 29.253-3.241 55.371-0.661 1.24-0.624 2.736 0.1 3.94 0.723 1.205 2.024 1.942 3.43 1.942h59.48v361.75z"/>
		<path d="m77.959 387.77h279.08v-8h-271.08v-7.592h271.08v-8h-41.104v-7.592h41.104v-8h-41.104v-18.933h-69.253v18.933h-160.73v-33.207h44.9v7.138h8v-7.138h20.956v22.729h8v-22.729h189.23v-8h-183.2v-7.592h183.2v-8h-212.16v-7.592h212.16v-8h-279.08v111.58zm176.72-23.592v-7.592h17.16v7.592h-17.16zm46.116 0h-14.934v-7.592h14.934v7.592zm7.137-26.525v10.933h-22.07v-10.933h22.07zm-53.253 0h23.183v10.933h-23.183v-10.933zm-15.138 18.933v7.592h-153.59v-7.592h153.59zm-153.59-49.21v-7.592h44.9v7.592h-44.9zm73.856 0h-20.956v-7.592h20.956v7.592zm-28.956-23.184v7.592h-44.9v-7.592h44.9z"/>
		<rect height="8" width="150.35" x="143.77" y="75.731"/>
		<rect height="8" width="94.664" x="171.61" y="59.026"/>
		<path d="m311.48 120.94h-8v7.137h-36.548v-16.047h-8v16.047h-78.868v-18.933h-39.183v18.933h-62.924v111.57h279.08v-8h-119.06v-7.591h119.06v-8h-15.489v-7.592h15.489v-8h-15.489v-11.592h-8v11.592h-95.574v-18.934h-39.183v18.934h-112.84v-33.207h271.08v-8h-45.56v-7.592h45.56v-8h-45.56v-7.592h45.56v-8h-45.56v-7.136zm-58.571 15.137v7.592h-72.845v-7.592h72.845zm-104.03 7.592v-7.592h23.183v7.592h-23.183zm0-26.524h23.183v10.933h-23.183v-10.933zm-15.137 18.932v7.592h-47.787v-7.592h47.787zm90.209 95.573h-138v-7.591h138v7.591zm-17.16-15.59v-7.592h23.183v7.592h-23.183zm120.73-7.592v7.592h-89.551v-7.592h89.551zm-120.73-18.934h23.183v10.934h-23.183v-10.934zm-15.137 18.934v7.592h-105.7v-7.592h105.7zm-105.7-56.799h80.084v7.592h-80.084v-7.592zm211.5 7.592h-117.39v-7.592h117.39v7.592zm6.024-15.592h-36.548v-7.592h36.548v7.592z"/>
	</g>
</svg>
