<svg xmlns="http://www.w3.org/2000/svg"
	viewBox="0 0 100.8 92.601251"
	xmlns:c="credits"
	c:author="Adventist.org"
	c:url="https://identity.adventist.org/">
	<g transform="scale(1.1682)">
		<g aboutmstransform="translate(0 59.567)">
			<path d="m36.438 9.8506v-3.4834h4.9433v-0.3261c0-3.4864-1.6064-6.0411-12.684-4.1231l-18.215 3.2441-10.481 14.539s25.151-4.4619 25.151-4.4619c7.5362-1.293 14.153-1.5635 16.23 4.4287v-9.8174h-4.9433z"/>
		</g>
		<g transform="translate(44.817 61.485)">
			<path d="m0 17.75c0-4.7422 2.8027-8 8.5205-13.721l4.0302-4.0293 18.42 3.2441 10.499 14.522s-24.152-4.167-24.152-4.167c-8.1891-1.571-15.132-2.121-17.318 4.151z"/>
		</g>
		<g transform="translate(45.838 40.16)">
			<path d="m0 25.767c1.8252-3.9141 5.7109-7.4541 7.9453-9.6875 0 0 1.5888-1.6162 1.5888-1.6162 6.7647-6.7627 8.0655-9.5625 8.4747-14.221 0.0195-0.2422 0.3671 0.9121 0.4716 1.7324 0.3487 2.7451 0.1475 4.7373-0.7851 7.4844-1.3955 4.1074-4.6992 7.3818-8.9834 11.666l-4.6621 4.6416h-4.0498z"/>
		</g>
		<g transform="translate(22.392 9.1504)">
			<path d="m27.375 0.0577c0-0.0371 0.1123-0.0577 0.1123 0v5.3935c0 4.8789-6.2705 10.509-8.7666 12.988 0 0-9.1875 9.2119-9.1875 9.2119-3.1756 3.175-9.533 9.448-6.8641 15.498 0.0889 0.202 0.1699 0.374-0.1689 0.134-0.6797-0.483-1.709-2.176-1.9834-5.27-0.4903-5.517 3.2715-10.455 7.9092-15.095 0 0 8.7626-8.7725 8.7626-8.7725 8.887-8.8862 9.754-10.453 10.187-14.088z"/>
		</g>
		<g transform="translate(25.772 18.384)">
			<path d="m15.341 18.44c2.4961-2.4805 8.7666-8.1094 8.7666-12.988v-5.3955c0-0.0557-0.1123-0.0361-0.1123 0-0.4326 3.6367-1.2998 5.2031-10.187 14.091 0 0-8.1396 8.1514-8.1396 8.1514-2.9568 2.957-5.6687 6.058-5.5437 11.062 0.0761 3.0684 1.6191 5.6103 3.9394 6.208 0.9551 0.208 0.8975 0.083 0.669-0.0137-3.2774-1.5468-3.042-7.4658 2.2568-12.765l8.3506-8.3506z"/>
		</g>
		<g transform="translate(21.598 -.021435)">
			<path d="m9.2949 28.686c-6.7636 6.762-8.0634 9.561-8.4746 14.22-0.0185 0.242-0.3671-0.912-0.4716-1.732-0.3487-2.743-0.1465-4.736 0.7871-7.485 1.3945-4.108 4.6972-7.381 8.9832-11.667 0 0 7.8632-7.8759 7.8632-7.8759 8.8868-8.8877 9.754-10.453 10.187-14.09 0-0.036132 0.1123-0.05664 0.1123 0v5.3945c0 4.8788-6.2705 10.508-8.7666 12.988l-10.22 10.246z"/>
		</g>
		<g transform="translate(44.817 69.418)">
			<path d="m0.1162 5.3623c-0.0049 0.041-0.1162 0.042-0.1162 0v-5.3623h2.2451c-1.2696 1.8174-1.917 3.5762-2.1289 5.3623z"/>
		</g>
		<g transform="translate(44.834 30.611)">
			<path d="m0.1162 35.323c-0.0049 0.042-0.1162 0.042-0.1162 0v-5.458c0-4.0996 4.0195-8.5332 8.0029-12.49l2.584-2.5811c2.085-2.087 8.453-8.3673 5.783-14.419-0.088-0.2012-0.17-0.375 0.17-0.1319 0.6797 0.4805 1.709 2.1758 1.9834 5.2706 0.4893 5.5146-3.2705 10.454-7.9102 15.093 0 0-2.3886 2.4004-2.3886 2.4004-5.7598 5.7588-7.6758 8.3408-8.1084 12.316z"/>
		</g>
		<g transform="translate(44.828 25.022)">
			<path d="m0.1152 31.446c-0.0058 0.041-0.1152 0.042-0.1152 0v-5.541c0-3.9092 3.8769-8.127 5.7588-10.01l2.917-2.9092c5.2972-5.2985 5.5342-11.216 2.2562-12.765-0.227-0.096-0.286-0.221 0.67-0.013 2.32 0.5967 3.862 3.1387 3.938 6.208 0.125 5.005-2.54 8.084-5.498 11.042l-2.3652 2.3633c-4.9463 4.9482-7.1124 7.8379-7.5616 11.625z"/>
		</g>
	</g>
</svg>
