<svg xmlns="http://www.w3.org/2000/svg" viewBox="0 0 493.59469 354.3045">
	<!-- http://www.flaticon.com/authors/freepik -->
	<path d="m487.08 13.75c-6.435-8.772-16.579-13.751-27.136-13.75-2.73 0-5.488 0.333-8.216 1.02l-426.29 107.31c-13.192 3.319-23.086 14.255-25.079 27.71-1.989 13.456 4.315 26.787 15.979 33.784l90.143 54.086v118.64c0 4.49 2.559 8.588 6.592 10.561 4.034 1.972 8.84 1.474 12.383-1.284l84.547-65.805 69.455 41.672c5.419 3.252 11.388 4.801 17.284 4.801 11.308 0 22.341-5.699 28.694-16.023l163.16-265.18c7.176-11.66 6.572-26.504-1.525-37.543zm-192.35 276.7-105.69-63.415 107.22-92.395c1.502-1.294 1.854-3.48 0.834-5.179-1.018-1.699-3.112-2.419-4.96-1.704l-163.31 63.14-79.327-47.6 397.32-100.01-152.08 247.16z"/>
</svg>
