<svg xmlns="http://www.w3.org/2000/svg" viewBox="0 0 97.796997 98.333999">
	<!-- http://www.flaticon.com/authors/freepik -->
	<g transform="translate(-.268)">
		<path d="m81.139 64.48c-4.286 0-8.188 1.607-11.171 4.233l-35.919-18.11c0.04-0.475 0.072-0.951 0.072-1.437 0-0.432-0.033-0.856-0.064-1.28l36.024-18.164c2.967 2.566 6.828 4.129 11.058 4.129 9.348 0 16.926-7.579 16.926-16.926-0.001-9.347-7.579-16.925-16.926-16.925-9.349 0-16.927 7.578-16.927 16.926 0 0.432 0.033 0.856 0.064 1.28l-36.025 18.164c-2.967-2.566-6.827-4.129-11.057-4.129-9.348 0-16.926 7.578-16.926 16.926 0 9.349 7.578 16.926 16.926 16.926 4.175 0 7.992-1.52 10.944-4.026l36.13 18.217c-0.023 0.373-0.057 0.744-0.057 1.124 0 9.348 7.578 16.926 16.926 16.926s16.926-7.579 16.926-16.926-7.577-16.928-16.924-16.928z"/>
	</g>
</svg>
