<svg xmlns="http://www.w3.org/2000/svg" viewBox="0 0 81.165 97.067">
	<!-- http://www.flaticon.com/authors/freepik -->
	<g transform="translate(-7.951)">
		<path d="m87.116 13.023h-19.17v-5.352c0-4.229-3.44-7.671-7.669-7.671h-23.487c-4.229 0-7.669 3.441-7.669 7.671v5.353h-19.17c-1.104 0-2 0.896-2 2v5.587c0 1.104 0.896 2 2 2h7.212l0.008 65.828c0 4.758 3.871 8.628 8.628 8.628h45.468c4.758 0 8.629-3.87 8.629-8.628v-65.809l7.219 0.005h0.001c0.53 0 1.039-0.211 1.414-0.585 0.375-0.375 0.586-0.885 0.586-1.415v-5.612c0-1.104-0.895-2-2-2zm-50.326 0v-5.352h23.486l0.003 5.353-23.489-0.001zm33.519 11.184v63.271h-43.552v-63.271h43.552z"/>
		<path d="m36.992 76.809h3.669c1.104 0 2-0.896 2-2v-37.932c0-1.104-0.896-2-2-2h-3.669c-1.104 0-2 0.896-2 2v37.934c0 1.103 0.895 1.998 2 1.998z"/>
		<path d="m56.405 76.809h3.669c1.104 0 2-0.896 2-2v-37.932c0-1.104-0.896-2-2-2h-3.669c-1.104 0-2 0.896-2 2v37.934c0 1.103 0.896 1.998 2 1.998z"/>
	</g>
</svg>
