<svg xmlns="http://www.w3.org/2000/svg"
	viewBox="0 0 246.353 349.75573"
	xmlns:c="credits"
	c:author="Freepik"
	c:url="https://www.flaticon.com/authors/freepik">
	<path d="m 246.353,147.19874 c 0,2.787 -1.267,9.271 -13.036,9.271 H 179.28 v 178.856 c 0.072,0.48 0.144,1.159 0.144,1.939 0,3.177 -1.207,6.106 -3.416,8.269 -2.858,2.798 -7.224,4.222 -12.988,4.222 H 79.964 c -11.493,0 -14.525,-8.149 -14.525,-12.454 v -177.066 H 15.904 c -13.841,0 -15.904,-6.594 -15.904,-10.521 0,-6.293 5.996,-12.577 7.197,-13.775 3.176,-4.305 89.036,-118.195001 101.529,-130.7180009 4.558,-4.53399996 9.131,-5.33899996 12.163,-5.20899996 7.293,0.3 12.268,5.91499996 12.808,6.55999996 L 238.535,133.24674 c 1.513,1.384 7.818,7.821 7.818,13.952 z" />
</svg>
